<?xml version="1.0" standalone="no"?><!DOCTYPE svg PUBLIC "-//W3C//DTD SVG 1.1//EN" "http://www.w3.org/Graphics/SVG/1.1/DTD/svg11.dtd"><svg t="1529992316026" class="icon" style="" viewBox="0 0 1024 1024" version="1.1" xmlns="http://www.w3.org/2000/svg" p-id="9274" xmlns:xlink="http://www.w3.org/1999/xlink" width="200" height="200"><defs><style type="text/css"></style></defs><path d="M887.23456 0 142.30016 0c-49.41824 0-89.84576 40.43264-89.84576 89.85088L52.4544 934.144c0 49.41312 40.42752 89.856 89.84576 89.856l744.9344 0c49.41312 0 89.84064-40.43776 89.84064-89.856L977.0752 89.84576C977.0752 40.43776 936.64768 0 887.23456 0zM918.82496 869.63712c0 49.408-40.42752 89.84576-89.84576 89.84576L200.55552 959.48288c-49.41824 0-89.84576-40.43264-89.84576-89.84576L110.70976 154.35776c0-49.41824 40.42752-89.85088 89.84576-89.85088L828.9792 64.50688c49.41312 0 89.84576 40.43264 89.84576 89.85088L918.82496 869.63712z" p-id="9275"></path><path d="M726.4256 226.9184 303.09888 226.9184c-16.8448 0-30.52032 13.66016-30.52032 30.51008s13.66528 30.51008 30.52032 30.51008l423.32672 0c16.85504 0 30.52032-13.66528 30.52032-30.51008S743.28064 226.9184 726.4256 226.9184z" p-id="9276"></path><path d="M726.4256 446.21312 303.09888 446.21312c-16.8448 0-30.52032 13.66016-30.52032 30.50496 0 16.84992 13.66528 30.5152 30.52032 30.5152l423.32672 0c16.85504 0 30.52032-13.66016 30.52032-30.5152C756.94592 459.86816 743.28064 446.21312 726.4256 446.21312z" p-id="9277"></path><path d="M726.4256 675.04128 303.09888 675.04128c-16.8448 0-30.52032 13.66528-30.52032 30.50496 0 16.8448 13.66528 30.5152 30.52032 30.5152l423.32672 0c16.85504 0 30.52032-13.65504 30.52032-30.5152C756.94592 688.6912 743.28064 675.04128 726.4256 675.04128z" p-id="9278"></path></svg>