<?xml version="1.0" standalone="no"?><!DOCTYPE svg PUBLIC "-//W3C//DTD SVG 1.1//EN" "http://www.w3.org/Graphics/SVG/1.1/DTD/svg11.dtd"><svg t="1529564171430" class="icon" style="" viewBox="0 0 1024 1024" version="1.1" xmlns="http://www.w3.org/2000/svg" p-id="15268" xmlns:xlink="http://www.w3.org/1999/xlink" width="200" height="200"><defs><style type="text/css"></style></defs><path d="M836.654545 93.090909l-195.490909 0c-19.781818-55.854545-69.818182-93.090909-130.327273-93.090909-60.509091 0-111.709091 37.236364-130.327273 93.090909L186.181818 93.090909c-51.2 0-93.090909 43.054545-93.090909 93.090909l0 743.563636c0 51.2 43.054545 93.090909 93.090909 93.090909l651.636364 0c51.2 0 93.090909-43.054545 93.090909-93.090909l0-745.890909C929.745455 136.145455 887.854545 93.090909 836.654545 93.090909zM509.672727 93.090909c27.927273 0 46.545455 19.781818 46.545455 46.545455s-19.781818 46.545455-46.545455 46.545455-46.545455-19.781818-46.545455-46.545455S482.909091 93.090909 509.672727 93.090909zM836.654545 930.909091l-651.636364 0 0-745.890909 93.090909 0L278.109091 326.981818l465.454545 0 0-139.636364 93.090909 0L836.654545 930.909091z" fill="#333333" p-id="15269"></path></svg>