<?xml version="1.0" standalone="no"?><!DOCTYPE svg PUBLIC "-//W3C//DTD SVG 1.1//EN" "http://www.w3.org/Graphics/SVG/1.1/DTD/svg11.dtd"><svg t="1529992292513" class="icon" style="" viewBox="0 0 1024 1024" version="1.1" xmlns="http://www.w3.org/2000/svg" p-id="6205" xmlns:xlink="http://www.w3.org/1999/xlink" width="200" height="200"><defs><style type="text/css"></style></defs><path d="M716.946286 367.323429h-413.988572V114.980571h84.260572c13.165714-55.588571 63.195429-96.987429 122.733714-96.987428s109.568 41.398857 122.733714 96.987428h84.260572v252.342858z m-355.766857-58.221715h297.545142v-135.753143H577.828571v-29.110857c0-37.449143-30.427429-67.876571-67.876571-67.876571-37.449143 0-67.876571 30.427429-67.876571 67.876571v29.110857h-80.896v135.753143z m0 0" p-id="6206"></path><path d="M807.497143 1014.052571H227.035429c-87.332571 0-158.427429-71.094857-158.427429-158.427428V305.883429c0-87.332571 71.094857-158.427429 158.427429-158.427429h134.144v161.645714h297.545142V147.309714H807.497143c87.332571 0 158.427429 71.094857 158.427428 158.427429v549.741714c0 87.478857-70.948571 158.573714-158.427428 158.573714zM227.035429 205.531429c-55.296 0-100.205714 44.909714-100.205715 100.205714v549.741714c0 55.296 44.909714 100.205714 100.205715 100.205714H807.497143c55.296 0 100.205714-44.909714 100.205714-100.205714V305.883429c0-55.296-44.909714-100.205714-100.205714-100.205715h-90.697143v161.645715H302.811429V205.531429h-75.776z m0 0" p-id="6207"></path><path d="M501.906286 820.077714c-6.582857 0-13.019429-2.194286-18.139429-6.436571l-161.645714-129.316572c-12.580571-10.093714-14.628571-28.379429-4.534857-40.96 10.093714-12.580571 28.379429-14.628571 40.96-4.534857l136.338285 109.129143L703.634286 419.547429c8.630857-13.604571 26.624-17.554286 40.228571-8.923429s17.554286 26.624 8.923429 40.228571L526.482286 806.473143c-4.388571 7.021714-11.702857 11.702857-19.748572 13.019428-1.609143 0.438857-3.218286 0.585143-4.827428 0.585143z m0 0" p-id="6208"></path></svg>