<?xml version="1.0" standalone="no"?><!DOCTYPE svg PUBLIC "-//W3C//DTD SVG 1.1//EN" "http://www.w3.org/Graphics/SVG/1.1/DTD/svg11.dtd"><svg t="1529992307356" class="icon" style="" viewBox="0 0 1024 1024" version="1.1" xmlns="http://www.w3.org/2000/svg" p-id="8587" xmlns:xlink="http://www.w3.org/1999/xlink" width="200" height="200"><defs><style type="text/css"></style></defs><path d="M57.2 886.7c4.9-2.2 10.9-5.1 17.5-8.6 53.3-34 157.3-25.7 236.3-14.5s180.2 59.3 275.1 34.2c94.9-25.2 255.7-154.1 309.4-189.1 53.8-35.1 39.2-61.6-14.1-61.6-53.3 0-98.2 25.7-199 69.6-100.8 43.8-212.3 31.6-272.9 4.1-60.5-27.5-77.6-77.8-43-73.7 275.6 67.1 288.6-57.7 257.9-72.9-30.7-15.2-229.1-54.8-293.2-62.7-64.1-7.9-91.3 18.4-160.7 55.3C101.3 603.4 45.6 587.4 0 624.5V319.8C0.1 143.2 143.2 0.1 319.8 0h384.4c176.6 0.1 319.7 143.2 319.8 319.8v384.4c-0.1 176.6-143.2 319.7-319.8 319.8H319.8c-108.7 0-204.8-54.4-262.6-137.3z m855.5-589.1c0.1-10.9-6.2-20.9-16.2-25.4l-89.7-40.1v-86.3c0-10.9-6.3-20.7-16.1-25.4L698 78.9c-3.2-1.4-6.8-2.1-10.3-2.1-3.6 0-7.1 0.7-10.4 2.1l-92.7 41.5c-9.8 4.6-16.1 14.5-16.1 25.4v86.3l-89.7 40.1c-9.9 4.6-16.2 14.5-16.1 25.4v89.7c0 5.2 1.3 10 3.9 14.5 2.6 4.4 6.2 7.8 10.8 10.1l92.7 48.3c3.6 2.1 7.6 3.1 11.8 3.1 4.2 0.1 8.2-1 11.8-3.1l92.6-48.3c0.5-0.2 1-0.5 1.5-0.8l1.4 0.8 92.7 48.3c3.6 2.1 7.6 3.1 11.8 3.1 4.1 0 8.2-1 11.8-3.1l92.6-48.3c4.5-2.3 8.2-5.8 10.8-10.1 2.6-4.4 4-9.4 4-14.5v-89.7zM806.8 428.7v-73.8l79.4-35.3v67.7l-79.4 41.4z m-13.2-97.9l-83.5-37.3 83.5-37.3 83.5 37.3-83.5 37.3zM701 267.6V210l79.4-35.3V232L701 267.6z m-13.3-81.7l-91.3-40.8 91.2-40.8 91.2 40.8-91.1 40.8z m-92.6 242.8v-73.8l79.4-35.3v67.7l-79.4 41.4z m-13.3-97.9l-83.5-37.3 83.5-37.3 83.6 37.3-83.6 37.3z m0 0" p-id="8588"></path></svg>