<?xml version="1.0" standalone="no"?><!DOCTYPE svg PUBLIC "-//W3C//DTD SVG 1.1//EN" "http://www.w3.org/Graphics/SVG/1.1/DTD/svg11.dtd"><svg t="1529565313112" class="icon" style="" viewBox="0 0 1024 1024" version="1.1" xmlns="http://www.w3.org/2000/svg" p-id="20272" xmlns:xlink="http://www.w3.org/1999/xlink" width="200" height="200"><defs><style type="text/css"></style></defs><path d="M506.41 620.242c0 18.472-5.462 33.841-16.384 46.108-10.922 12.267-24.353 18.4-40.293 18.4H223.028c-15.94 0-29.37-6.133-40.293-18.4-10.922-12.267-16.383-27.636-16.383-46.108 0-18.473 1.329-35.43 3.985-50.871 2.657-15.442 7.011-30.306 13.062-44.593 6.052-14.287 14.981-25.544 26.789-33.77 11.807-8.226 26.124-12.339 42.95-12.339 1.77 1.155 6.199 3.752 13.283 7.793 7.085 4.041 12.62 7.144 16.604 9.309 3.985 2.164 9.225 4.69 15.72 7.576 6.493 2.886 12.84 4.979 19.039 6.278a90.463 90.463 0 0 0 18.597 1.948c6.199 0 12.398-0.65 18.597-1.948 6.199-1.3 12.545-3.392 19.04-6.278 6.493-2.886 11.733-5.412 15.718-7.576 3.985-2.165 9.52-5.268 16.604-9.309 7.085-4.04 11.513-6.638 13.284-7.793 16.825 0 31.142 4.113 42.95 12.34 11.807 8.225 20.737 19.482 26.788 33.769 6.051 14.287 10.405 29.151 13.062 44.593 2.657 15.441 3.985 32.398 3.985 50.87z m-69.518-225.13c0 27.13-9.815 50.293-29.445 69.487-19.63 19.193-43.319 28.79-71.066 28.79-27.748 0-51.437-9.597-71.067-28.79-19.63-19.194-29.445-42.357-29.445-69.488 0-27.13 9.815-50.293 29.445-69.487 19.63-19.194 43.319-28.79 71.067-28.79 27.747 0 51.436 9.596 71.066 28.79 19.63 19.194 29.445 42.356 29.445 69.487zM846.466 587.77v27.708c0 4.041-1.328 7.36-3.985 9.958s-6.051 3.896-10.184 3.896H577.254c-4.132 0-7.527-1.298-10.184-3.896-2.656-2.598-3.985-5.917-3.985-9.958v-27.708c0-4.041 1.329-7.36 3.985-9.958 2.657-2.597 6.052-3.896 10.184-3.896h255.043c4.133 0 7.527 1.298 10.184 3.896 2.657 2.598 3.985 5.917 3.985 9.958z m0-109.102v24.245c0 4.33-1.55 8.01-4.65 11.04-3.099 3.03-6.862 4.546-11.29 4.546h-251.5c-4.428 0-8.192-1.515-11.292-4.546-3.099-3.03-4.649-6.71-4.649-11.04V478.67c0-4.33 1.55-8.01 4.65-11.04 3.099-3.03 6.863-4.546 11.29-4.546h251.5c4.429 0 8.192 1.516 11.292 4.546 3.1 3.03 4.649 6.71 4.649 11.04z m0-112.565v27.708c0 4.041-1.328 7.36-3.985 9.958s-6.051 3.897-10.184 3.897H577.254c-4.132 0-7.527-1.3-10.184-3.897-2.656-2.597-3.985-5.917-3.985-9.958v-27.708c0-4.04 1.329-7.36 3.985-9.958 2.657-2.597 6.052-3.896 10.184-3.896h255.043c4.133 0 7.527 1.299 10.184 3.896 2.657 2.598 3.985 5.917 3.985 9.958z m56.676 415.625V255.271c0-3.752-1.402-7-4.206-9.741-2.805-2.742-6.126-4.113-9.963-4.113H123.845c-3.837 0-7.158 1.37-9.962 4.113-2.805 2.742-4.207 5.989-4.207 9.74v526.46c0 3.751 1.402 6.998 4.207 9.74 2.804 2.742 6.125 4.113 9.962 4.113h155.86v-41.562c0-4.041 1.328-7.36 3.985-9.958 2.656-2.598 6.051-3.896 10.184-3.896h28.338c4.132 0 7.527 1.298 10.184 3.896 2.656 2.598 3.985 5.917 3.985 9.958v41.562h340.057v-41.562c0-4.041 1.328-7.36 3.985-9.958 2.656-2.598 6.05-3.896 10.184-3.896h28.338c4.132 0 7.527 1.298 10.184 3.896 2.656 2.598 3.985 5.917 3.985 9.958v41.562h155.859c3.837 0 7.158-1.37 9.963-4.113 2.804-2.742 4.206-5.989 4.206-9.74z m56.676-526.458v526.458c0 19.05-6.937 35.357-20.81 48.923C925.133 844.217 908.454 851 888.972 851H123.845c-19.482 0-36.16-6.783-50.034-20.348C59.937 817.086 53 800.779 53 781.729V255.271c0-19.05 6.937-35.357 20.81-48.923C87.686 192.783 104.364 186 123.846 186h765.128c19.482 0 36.16 6.783 50.034 20.348 13.874 13.566 20.811 29.873 20.811 48.923z" fill="#333333" p-id="20273"></path></svg>