<?xml version="1.0" standalone="no"?><!DOCTYPE svg PUBLIC "-//W3C//DTD SVG 1.1//EN" "http://www.w3.org/Graphics/SVG/1.1/DTD/svg11.dtd"><svg t="1529635993889" class="icon" style="" viewBox="0 0 1024 1024" version="1.1" xmlns="http://www.w3.org/2000/svg" p-id="658" xmlns:xlink="http://www.w3.org/1999/xlink" width="200" height="200"><defs><style type="text/css"></style></defs><path d="M672.073956 146.295467c-120.649956 0-218.441956 77.403022-218.441956 172.885333 0 56.877511 34.861511 107.190044 88.439467 138.695111-5.233778 28.728889-21.924978 62.5664-45.249422 85.902222 56.957156-4.255289 107.099022-20.5824 139.923911-54.180978 11.525689 1.490489 23.278933 2.4576 35.339378 2.4576 120.649956 0 218.441956-77.403022 218.441956-172.885333S792.723911 146.295467 672.073956 146.295467zM721.976889 284.706133c-6.9632 2.321067-14.449778-1.4336-16.770844-8.351289-2.901333-8.669867-13.380267-18.784711-33.348267-18.784711-16.440889 0-26.168889 11.002311-27.306667 21.879467-1.410844 13.573689 9.807644 24.200533 30.014578 28.433067 41.0624 8.6016 53.100089 36.124444 50.926933 57.082311-2.241422 21.742933-18.784711 38.832356-40.402489 43.9296l0 15.2576c0 7.315911-5.927822 13.243733-13.243733 13.243733-7.315911 0-13.243733-5.927822-13.243733-13.243733l0-14.700089c-25.691022-4.380444-40.322844-21.060267-45.226667-35.692089-2.321067-6.940444 1.422222-14.449778 8.351289-16.770844 6.974578-2.309689 14.449778 1.4336 16.770844 8.351289 2.901333 8.669867 13.380267 18.784711 33.348267 18.784711 16.440889 0 26.168889-11.002311 27.306667-21.879467 1.410844-13.573689-9.819022-24.200533-30.014578-28.433067-41.0624-8.6016-53.100089-36.124444-50.926933-57.082311 2.2528-21.742933 18.784711-38.832356 40.402489-43.9296l0-15.2576c0-7.315911 5.927822-13.243733 13.243733-13.243733 7.315911 0 13.243733 5.927822 13.243733 13.243733l0 14.700089c25.691022 4.369067 40.322844 21.060267 45.226667 35.692089C732.649244 274.875733 728.917333 282.373689 721.976889 284.706133zM615.310222 840.248889c-35.1232 35.1232-166.047289 1.8432-295.458133-127.556267C190.452622 583.281778 157.161244 452.357689 192.295822 417.223111c30.446933-30.446933 67.549867-83.626667 123.198578-14.358756 55.671467 69.245156 28.319289 88.621511-3.106133 120.035556-21.936356 21.947733 23.881956 77.448533 71.827911 125.405867 47.934578 47.945956 103.458133 93.775644 125.394489 71.827911 31.425422-31.414044 50.7904-58.7776 120.046933-3.117511C698.936889 772.699022 645.745778 809.801956 615.310222 840.248889z" p-id="659"></path></svg>