<?xml version="1.0" standalone="no"?><!DOCTYPE svg PUBLIC "-//W3C//DTD SVG 1.1//EN" "http://www.w3.org/Graphics/SVG/1.1/DTD/svg11.dtd"><svg t="1529564136049" class="icon" style="" viewBox="0 0 1024 1024" version="1.1" xmlns="http://www.w3.org/2000/svg" p-id="14578" xmlns:xlink="http://www.w3.org/1999/xlink" width="200" height="200"><defs><style type="text/css"></style></defs><path d="M681.472 707.072c-14.336-2.56-14.848-41.472-14.848-41.472s42.496-41.472 51.2-97.28c25.088 0 39.936-59.392 15.36-80.384 1.024-22.016 31.744-172.544-123.904-172.544S483.84 465.92 484.864 487.936c-25.088 20.992-9.216 80.384 15.36 80.384 9.216 55.808 51.2 97.28 51.2 97.28s-0.512 39.424-14.848 41.472c-46.08 7.168-219.136 82.944-219.136 166.4h583.68c0-83.456-173.056-158.72-219.648-166.4z m-296.96 13.312c33.28-20.48 74.24-39.936 107.52-51.2-12.288-16.896-25.088-39.936-33.792-67.584-11.776-9.728-21.504-23.552-27.136-39.936-6.144-16.896-8.704-35.84-6.656-52.736 1.024-12.288 5.12-24.064 10.752-34.304-3.072-35.328-5.632-104.96 39.936-155.648 17.408-19.456 39.936-33.792 66.56-42.496-5.632-49.664-30.72-107.52-127.488-107.52-156.16 0-125.44 150.528-124.416 172.544-25.088 20.992-9.216 80.384 15.36 80.384 9.216 55.808 51.712 97.28 51.712 97.28s-0.512 39.424-14.848 41.472C295.936 568.32 122.88 644.096 122.88 727.04h250.368c3.584-2.048 7.168-4.608 11.264-6.656z" p-id="14579"></path></svg>